Coordinates
version=1
nRows=25
nColumns=21
inDegrees=yes

Units are S.I. units (second, meters, Newtons, ...)
If the header above contains a line with 'inDegrees', this indicates whether rotational values are in degrees (yes) or radians (no).

endheader
time	sternoclavicular_r2	sternoclavicular_r3	unrotscap_r3	unrotscap_r2	acromioclavicular_r2	acromioclavicular_r3	acromioclavicular_r1	unrothum_r1	unrothum_r3	unrothum_r2	elv_angle	shoulder_elev	shoulder1_r2	shoulder_rot	elbow_flexion	pro_sup	deviation	flexion	wrist_hand_r1	wrist_hand_r3
      0.00000000	     -0.00048191	      0.00020412	     -0.00020412	      0.00048191	     -0.00009758	      0.00078859	      0.00035446	     -0.00035446	     -0.00078859	      0.00009758	     60.14277612	      0.00199137	    -60.14277612	    -14.02953329	    125.80075253	      0.00000000	      0.00000000	     -0.00000000	     -0.00000000	      0.00000000
      0.10101010	     -0.00048216	      0.00020422	     -0.00020422	      0.00048216	     -0.00009763	      0.00078900	      0.00035465	     -0.00035465	     -0.00078900	      0.00009763	     59.93520758	      0.00199241	    -59.93520758	    -14.02925667	    125.79970583	      0.00000000	      0.00000000	     -0.00000000	     -0.00000000	      0.00000000
      0.20202020	     -0.00048242	      0.00020433	     -0.00020433	      0.00048242	     -0.00009768	      0.00078942	      0.00035484	     -0.00035484	     -0.00078942	      0.00009768	     59.72344164	      0.00199347	    -59.72344164	    -14.02852086	    125.79891154	      0.00000000	      0.00000000	     -0.00000000	     -0.00000000	      0.00000000
      0.30303030	     -0.00048267	      0.00020443	     -0.00020443	      0.00048267	     -0.00009773	      0.00078982	      0.00035502	     -0.00035502	     -0.00078982	      0.00009773	     59.50785408	      0.00199449	    -59.50785408	    -14.02468130	    125.79581213	      0.00000000	      0.00000000	     -0.00000000	     -0.00000000	      0.00000000
      0.40404040	     -0.00048289	      0.00020453	     -0.00020453	      0.00048289	     -0.00009777	      0.00079018	      0.00035518	     -0.00035518	     -0.00079018	      0.00009777	     59.28888128	      0.00199539	    -59.28888128	    -14.01465718	    125.78787167	      0.00000000	      0.00000000	     -0.00000000	     -0.00000000	      0.00000000
      0.50505051	     -0.00048307	      0.00020460	     -0.00020460	      0.00048307	     -0.00009781	      0.00079048	      0.00035531	     -0.00035531	     -0.00079048	      0.00009781	     59.06686258	      0.00199614	    -59.06686258	    -13.99556392	    125.77270075	      0.00000000	      0.00000000	     -0.00000000	     -0.00000000	      0.00000000
      0.60606061	     -0.00048320	      0.00020466	     -0.00020466	      0.00048320	     -0.00009784	      0.00079069	      0.00035541	     -0.00035541	     -0.00079069	      0.00009784	     58.84200797	      0.00199667	    -58.84200797	    -13.96471140	    125.74806131	      0.00000000	      0.00000000	     -0.00000000	     -0.00000000	      0.00000000
      0.70707071	     -0.00048326	      0.00020469	     -0.00020469	      0.00048326	     -0.00009785	      0.00079080	      0.00035546	     -0.00035546	     -0.00079080	      0.00009785	     58.61436600	      0.00199695	    -58.61436600	    -13.91960031	    125.71185125	      0.00000000	      0.00000000	     -0.00000000	     -0.00000000	      0.00000000
      0.80808081	     -0.00048326	      0.00020469	     -0.00020469	      0.00048326	     -0.00009785	      0.00079080	      0.00035546	     -0.00035546	     -0.00079080	      0.00009785	     58.38379491	      0.00199695	    -58.38379491	    -13.85791974	    125.66208484	      0.00000000	      0.00000000	     -0.00000000	     -0.00000000	      0.00000000
      0.90909091	     -0.00048319	      0.00020466	     -0.00020466	      0.00048319	     -0.00009784	      0.00079068	      0.00035540	     -0.00035540	     -0.00079068	      0.00009784	     58.14994275	      0.00199665	    -58.14994275	    -13.77754844	    125.59687515	      0.00000000	      0.00000000	     -0.00000000	     -0.00000000	      0.00000000
      1.01010101	     -0.00048304	      0.00020459	     -0.00020459	      0.00048304	     -0.00009781	      0.00079044	      0.00035530	     -0.00035530	     -0.00079044	      0.00009781	     57.91224208	      0.00199604	    -57.91224208	    -13.67656060	    125.51442182	      0.00000000	      0.00000000	     -0.00000000	     -0.00000000	      0.00000000
      1.11111111	     -0.00048282	      0.00020450	     -0.00020450	      0.00048282	     -0.00009776	      0.00079008	      0.00035513	     -0.00035513	     -0.00079008	      0.00009776	     57.66992335	      0.00199513	    -57.66992335	    -13.55323559	    125.41300791	      0.00000000	      0.00000000	     -0.00000000	     -0.00000000	      0.00000000
      1.21212121	     -0.00048402	      0.00020501	     -0.00020501	      0.00048402	     -0.00009800	      0.00079203	      0.00035601	     -0.00035601	     -0.00079203	      0.00009800	     57.39513751	      0.00200007	    -57.39513751	    -13.40301840	    125.28008955	      0.00000000	      0.00000000	     -0.00000000	     -0.00000000	      0.00000000
      1.31313131	     -0.00048387	      0.00020494	     -0.00020494	      0.00048387	     -0.00009797	      0.00079179	      0.00035590	     -0.00035590	     -0.00079179	      0.00009797	     57.10236990	      0.00199945	    -57.10236990	    -13.23031728	    125.13371947	      0.00000000	      0.00000000	     -0.00000000	     -0.00000000	      0.00000000
      1.41414141	     -0.00048371	      0.00020488	     -0.00020488	      0.00048371	     -0.00009794	      0.00079153	      0.00035579	     -0.00035579	     -0.00079153	      0.00009794	     56.78415945	      0.00199880	    -56.78415945	    -13.03164461	    124.96428105	      0.00000000	      0.00000000	     -0.00000000	     -0.00000000	      0.00000000
      1.51515152	     -0.00048356	      0.00020481	     -0.00020481	      0.00048356	     -0.00009791	      0.00079129	      0.00035568	     -0.00035568	     -0.00079129	      0.00009791	     56.43830855	      0.00199819	    -56.43830855	    -12.80616806	    124.77059514	      0.00000000	      0.00000000	     -0.00000000	     -0.00000000	      0.00000000
      1.61616162	     -0.00048345	      0.00020477	     -0.00020477	      0.00048345	     -0.00009789	      0.00079111	      0.00035560	     -0.00035560	     -0.00079111	      0.00009789	     56.06272364	      0.00199774	    -56.06272364	    -12.55325255	    124.55158383	      0.00000000	      0.00000000	     -0.00000000	     -0.00000000	      0.00000000
      1.71717172	     -0.00048340	      0.00020475	     -0.00020475	      0.00048340	     -0.00009788	      0.00079103	      0.00035556	     -0.00035556	     -0.00079103	      0.00009788	     55.65544766	      0.00199753	    -55.65544766	    -12.27246675	    124.30626802	      0.00000000	      0.00000000	     -0.00000000	     -0.00000000	      0.00000000
      1.81818182	     -0.00048345	      0.00020476	     -0.00020476	      0.00048345	     -0.00009789	      0.00079110	      0.00035559	     -0.00035559	     -0.00079110	      0.00009789	     55.21484430	      0.00199771	    -55.21484430	    -11.96357289	    124.03376342	      0.00000000	      0.00000000	     -0.00000000	     -0.00000000	      0.00000000
      1.91919192	     -0.00048361	      0.00020484	     -0.00020484	      0.00048361	     -0.00009792	      0.00079137	      0.00035572	     -0.00035572	     -0.00079137	      0.00009792	     54.73956340	      0.00199840	    -54.73956340	    -11.62651923	    123.73328275	      0.00000000	      0.00000000	     -0.00000000	     -0.00000000	      0.00000000
      2.02020202	     -0.00048395	      0.00020498	     -0.00020498	      0.00048395	     -0.00009799	      0.00079192	      0.00035596	     -0.00035596	     -0.00079192	      0.00009799	     54.22820622	      0.00199979	    -54.22820622	    -11.26142768	    123.40413835	      0.00000000	      0.00000000	     -0.00000000	     -0.00000000	      0.00000000
      2.12121212	     -0.00048449	      0.00020521	     -0.00020521	      0.00048449	     -0.00009810	      0.00079281	      0.00035636	     -0.00035636	     -0.00079281	      0.00009810	     53.67950016	      0.00200204	    -53.67950016	    -10.86859527	    123.04575421	      0.00000000	      0.00000000	     -0.00000000	     -0.00000000	      0.00000000
      2.22222222	     -0.00048530	      0.00020555	     -0.00020555	      0.00048530	     -0.00009826	      0.00079413	      0.00035695	     -0.00035695	     -0.00079413	      0.00009826	     53.09231658	      0.00200536	    -53.09231658	    -10.44851980	    122.65768530	      0.00000000	      0.00000000	     -0.00000000	     -0.00000000	      0.00000000
      2.32323232	     -0.00048641	      0.00020602	     -0.00020602	      0.00048641	     -0.00009849	      0.00079595	      0.00035778	     -0.00035778	     -0.00079595	      0.00009849	     52.46575568	      0.00200997	    -52.46575568	    -10.00192210	    122.23962344	      0.00000000	      0.00000000	     -0.00000000	     -0.00000000	      0.00000000
      2.42424242	     -0.00048790	      0.00020665	     -0.00020665	      0.00048790	     -0.00009879	      0.00079839	      0.00035887	     -0.00035887	     -0.00079839	      0.00009879	     51.79927661	      0.00201611	    -51.79927661	     -9.52972231	    121.79138490	      0.00000000	      0.00000000	     -0.00000000	     -0.00000000	      0.00000000
